<svg id="Capa_1" enable-background="new 0 0 512 512" height="512" viewBox="0 0 512 512" width="512" xmlns="http://www.w3.org/2000/svg" xmlns:xlink="http://www.w3.org/1999/xlink"><linearGradient id="SVGID_1_" gradientUnits="userSpaceOnUse" x1="74.981" x2="437.019" y1="437.019" y2="74.981"><stop offset="0" stop-color="#6b23ea"/><stop offset="1" stop-color="#fc54ff"/></linearGradient><radialGradient id="SVGID_2_" cx="253.972" cy="189.07" gradientUnits="userSpaceOnUse" r="258.6"><stop offset=".101" stop-color="#8d00db" stop-opacity=".66"/><stop offset=".287" stop-color="#9f0de1" stop-opacity=".523"/><stop offset=".6564" stop-color="#cc30f0" stop-opacity=".252"/><stop offset="1" stop-color="#fc54ff" stop-opacity="0"/></radialGradient><linearGradient id="lg1"><stop offset="0" stop-color="#b31de7"/><stop offset="1" stop-color="#fda0ff"/></linearGradient><linearGradient id="SVGID_3_" gradientUnits="userSpaceOnUse" x1="21.067" x2="371.011" xlink:href="#lg1" y1="606.819" y2="256.875"/><linearGradient id="SVGID_4_" gradientUnits="userSpaceOnUse" x1="-57.482" x2="381.923" xlink:href="#lg1" y1="689.193" y2="249.787"/><linearGradient id="SVGID_5_" gradientUnits="userSpaceOnUse" x1="1.077" x2="357.695" xlink:href="#lg1" y1="426.732" y2="70.114"/><linearGradient id="SVGID_6_" gradientUnits="userSpaceOnUse" x1="69.012" x2="358.665" xlink:href="#lg1" y1="360.518" y2="70.865"/><radialGradient id="SVGID_7_" cx="256" cy="132.538" gradientUnits="userSpaceOnUse" r="132.255"><stop offset="0" stop-color="#fff"/><stop offset="1" stop-color="#fda0ff" stop-opacity="0"/></radialGradient><linearGradient id="lg2"><stop offset="0" stop-color="#fda0ff"/><stop offset="1" stop-color="#fff"/></linearGradient><linearGradient id="SVGID_8_" gradientUnits="userSpaceOnUse" x1="166.29" x2="321.183" xlink:href="#lg2" y1="222.545" y2="67.653"/><linearGradient id="SVGID_9_" gradientUnits="userSpaceOnUse" x1="225.109" x2="322.523" xlink:href="#lg2" y1="163.503" y2="66.089"/><g><circle cx="256" cy="256" fill="url(#SVGID_1_)" r="256"/><circle cx="256" cy="256" fill="url(#SVGID_2_)" r="256"/><path d="m107.621 344.017c-12.641 6.13-23.93 14.332-33.346 24.134 39.5 60.68 106.654 104.74 181.725 104.687 65.754.062 125.211-33.697 165.689-82.744-104.054-11.41-208.845-27.922-314.068-46.077z" fill="url(#SVGID_3_)"/><path d="m348.886 331.787c-61.924.833-123.849.833-185.773 0-20.049-.27-38.932 4.2-55.493 12.23 39.594 57.987 105.107 98.709 178.56 97.927 50.876-.454 97.903-20.556 135.509-51.851 5.764-7.012 11.126-14.342 16.036-21.942-21.75-22.623-53.485-36.825-88.839-36.364z" fill="url(#SVGID_4_)"/><path d="m386.47 171.751c.488 70.912-58.566 129.714-130.47 129.912-71.904-.198-130.958-59-130.47-129.912.705-70.885 59.758-131.292 130.47-131.463 70.712.17 129.765 60.576 130.47 131.463z" fill="url(#SVGID_5_)"/><path d="m271.366 270.906c-72.052-.106-130.942-58.623-130.251-129.78.136-14.736 2.785-28.942 7.498-42.253-14.32 21.033-22.895 46.077-23.082 72.877-.488 70.912 58.566 129.714 130.47 129.912 57.11-.032 106.015-37.391 123.591-87.958-23.447 34.158-63.25 57.164-108.226 57.202z" fill="url(#SVGID_6_)"/><path d="m387.962 133.883c.91 71.769-58.899 130.959-131.962 131.192-73.064-.234-132.873-59.425-131.962-131.192 1.157-71.721 60.966-133.696 131.962-133.883 70.996.188 130.805 62.161 131.962 133.883z" fill="url(#SVGID_7_)"/><path d="m317.233 132.815c.202 33.837-27.28 61.198-61.233 61.223-33.953-.025-61.435-27.385-61.233-61.223.225-33.826 27.706-61.764 61.233-61.777 33.527.013 61.009 27.949 61.233 61.777z" fill="url(#SVGID_8_)"/><path d="m286.617 132.607c.052 16.968-13.664 30.676-30.617 30.681-16.953-.006-30.668-13.712-30.617-30.681.055-16.964 13.771-30.817 30.617-30.819 16.846 0 30.562 13.853 30.617 30.819z" fill="url(#SVGID_9_)"/></g></svg>